<svg width="16" height="12" viewBox="0 0 16 12" fill="none" xmlns="http://www.w3.org/2000/svg">
<path d="M3.64977 0.294929C3.90783 0.147464 4.2765 0 4.60829 0C5.30876 0 5.89862 0.405529 5.89862 1.21659C5.89862 1.58525 5.64055 1.99078 5.34562 2.35945C4.86636 3.02304 4.4977 3.7235 4.46083 4.38709C6.23041 4.64516 7.447 6.00922 7.447 7.81567C7.447 9.84332 5.78802 11.3548 3.76037 11.3548C1.73272 11.3548 0 9.84332 0 7.63133C0 4.31336 1.54839 1.43779 3.64977 0.294929ZM12.2028 0.294929C12.4608 0.147464 12.8295 0 13.1613 0C13.8618 0 14.4516 0.405529 14.4516 1.21659C14.4516 1.58525 14.1935 1.99078 13.8986 2.35945C13.4194 3.02304 13.0507 3.7235 13.0138 4.38709C14.7834 4.64516 16 6.00922 16 7.81567C16 9.84332 14.341 11.3548 12.3134 11.3548C10.2857 11.3548 8.553 9.84332 8.553 7.63133C8.553 4.31336 10.1014 1.43779 12.2028 0.294929Z" fill="black"/>
</svg>
