<svg width="16" height="12" viewBox="0 0 16 12" fill="none" xmlns="http://www.w3.org/2000/svg">
<path d="M12.3502 11.0601C12.0922 11.2075 11.7235 11.355 11.3917 11.355C10.6912 11.355 10.1014 10.9495 10.1014 10.1384C10.1014 9.76973 10.3594 9.3642 10.6544 8.99554C11.1336 8.33194 11.5023 7.63148 11.5392 6.96789C9.76959 6.70982 8.553 5.34576 8.553 3.53931C8.553 1.51166 10.212 0.000142097 12.2396 0.000142097C14.2673 0.000142097 16 1.51166 16 3.72365C16 7.04162 14.4516 9.91719 12.3502 11.0601ZM3.79724 11.0601C3.53917 11.2075 3.17051 11.355 2.83871 11.355C2.13825 11.355 1.54839 10.9495 1.54839 10.1384C1.54839 9.76973 1.80645 9.3642 2.10138 8.99554C2.58064 8.33194 2.94931 7.63148 2.98617 6.96789C1.21659 6.70982 0 5.34576 0 3.53931C0 1.51166 1.65899 0.000142097 3.68664 0.000142097C5.71429 0.000142097 7.447 1.51166 7.447 3.72365C7.447 7.04162 5.89862 9.91719 3.79724 11.0601Z" fill="black"/>
</svg>
