<svg width="142" height="53" viewBox="0 0 142 53" fill="none" xmlns="http://www.w3.org/2000/svg">
<path d="M10.0472 45.2171V36.6681L0 17.9675H7.16949L12.9636 31.2587H13.1735L18.929 17.9675H26.0598L16.0568 36.5861V45.2116H10.0472V45.2171Z" fill="black"/>
<path d="M35.643 45.7914C33.4502 45.7914 31.517 45.3593 29.8489 44.4896C28.1808 43.6254 26.8772 42.3456 25.9327 40.65C24.9882 38.9599 24.5132 36.8431 24.5132 34.3107C24.5132 31.7783 24.9937 29.6725 25.9493 27.9933C26.9104 26.3141 28.2195 25.0561 29.8875 24.2138C31.5556 23.377 33.4557 22.9558 35.5988 22.9558C37.7917 22.9558 39.7249 23.3824 41.393 24.2357C43.0611 25.089 44.3757 26.3634 45.3312 28.0535C46.2923 29.7491 46.7673 31.8603 46.7673 34.3928C46.7673 36.9799 46.2813 39.113 45.3091 40.7922C44.337 42.4714 43.0003 43.7239 41.3046 44.5498C39.6144 45.3812 37.7254 45.7914 35.643 45.7914ZM35.8087 41.3774C36.4771 41.3774 37.1012 41.268 37.6867 41.0493C38.2722 40.8305 38.7914 40.464 39.2499 39.9553C39.7083 39.4467 40.0673 38.7575 40.3325 37.8933C40.5976 37.0291 40.7302 35.9735 40.7302 34.7373C40.7302 33.4137 40.5865 32.3034 40.2938 31.3954C40.0011 30.4875 39.6144 29.7491 39.1283 29.1857C38.6423 28.6223 38.0789 28.2176 37.4382 27.966C36.7974 27.7198 36.1346 27.594 35.4387 27.594C34.7979 27.594 34.1793 27.7034 33.5828 27.9222C32.9862 28.141 32.4615 28.5075 32.0196 29.0161C31.5722 29.5248 31.2132 30.2085 30.937 31.0618C30.6608 31.915 30.5227 32.9761 30.5227 34.2396C30.5227 35.5578 30.6608 36.6736 30.937 37.5815C31.2132 38.4895 31.6054 39.2279 32.1025 39.7913C32.6051 40.3546 33.174 40.7594 33.8092 41.011C34.4499 41.2516 35.1128 41.3774 35.8087 41.3774Z" fill="black"/>
<path d="M57.864 45.7914C56.7814 45.7914 55.8203 45.6382 54.9863 45.3374C54.1522 45.0366 53.4397 44.5881 52.8376 43.9973C52.2411 43.4066 51.7495 42.6901 51.3574 41.8533C50.9652 41.0164 50.678 40.0483 50.4846 38.9653C50.2913 37.8769 50.1919 36.6735 50.1919 35.3554V23.541H56.2401V34.0262C56.2401 34.6334 56.2622 35.3225 56.3009 36.0883C56.3451 36.8595 56.4832 37.6088 56.7151 38.3363C56.9526 39.0638 57.3338 39.6654 57.864 40.1303C58.3943 40.5952 59.1289 40.8304 60.0734 40.8304C60.8522 40.8304 61.5261 40.6445 62.095 40.2725C62.6639 39.9006 63.1555 39.3646 63.5753 38.6645C63.9896 37.9644 64.3044 37.1385 64.5143 36.1867C64.7242 35.235 64.8402 34.2013 64.8678 33.0691V23.541H70.8718V36.2578V45.2171H65.9946V38.2816H65.2434C64.8789 40.0428 64.3818 41.4758 63.741 42.5752C63.1003 43.6746 62.3049 44.4896 61.3438 45.0092C60.3827 45.5288 59.2228 45.7914 57.864 45.7914Z" fill="black"/>
<path d="M84.5867 45.7914C83.1119 45.7914 81.7808 45.6547 80.5822 45.3812C79.3891 45.1077 78.3562 44.6975 77.5001 44.1615C76.6384 43.6254 75.9425 42.98 75.4177 42.2198C74.8875 41.465 74.5561 40.6172 74.418 39.6819L79.0467 37.948C79.1571 38.5551 79.4554 39.124 79.9415 39.66C80.4275 40.196 81.0903 40.6226 81.9189 40.9399C82.7474 41.2571 83.7692 41.4157 84.9623 41.4157C86.2106 41.4157 87.1828 41.2298 87.8787 40.8578C88.5747 40.4859 88.9227 39.9553 88.9227 39.2662C88.9227 38.7411 88.7293 38.3309 88.3372 38.03C87.945 37.7292 87.3871 37.4667 86.647 37.2424C85.9124 37.0236 85.012 36.8158 83.957 36.6244C82.902 36.3782 81.836 36.1102 80.77 35.8203C79.6984 35.5304 78.7153 35.1366 77.8094 34.6444C76.9035 34.1466 76.1744 33.5012 75.6221 32.7026C75.0642 31.9041 74.7881 30.8867 74.7881 29.6451C74.7881 28.2996 75.1471 27.1291 75.8706 26.1391C76.5942 25.1491 77.6547 24.3724 79.0577 23.8036C80.4607 23.2402 82.1509 22.9558 84.1227 22.9558C85.9289 22.9558 87.5142 23.1965 88.873 23.6778C90.2373 24.1591 91.3475 24.8592 92.2091 25.7836C93.0708 26.708 93.6397 27.8128 93.9214 29.1091L89.0442 30.6351C88.9337 29.946 88.6686 29.3498 88.2543 28.8411C87.84 28.3324 87.2767 27.955 86.5641 27.7034C85.8571 27.4573 85.0286 27.3315 84.0841 27.3315C82.9186 27.3315 82.0072 27.5229 81.3555 27.9113C80.7037 28.2996 80.3778 28.8083 80.3778 29.4373C80.3778 29.9624 80.5932 30.389 81.0241 30.7172C81.4549 31.0454 82.0514 31.3134 82.8137 31.5212C83.5759 31.7291 84.4873 31.9424 85.5423 32.1612C86.6525 32.3799 87.7296 32.637 88.7735 32.9269C89.8175 33.2168 90.7675 33.5942 91.6292 34.0646C92.4908 34.535 93.1757 35.153 93.695 35.9242C94.2086 36.6955 94.4682 37.6964 94.4682 38.938C94.4682 40.371 94.0761 41.5908 93.3028 42.6136C92.5295 43.6364 91.3972 44.4185 89.9279 44.9655C88.4476 45.5179 86.6691 45.7914 84.5867 45.7914Z" fill="black"/>
<path d="M103.179 45.7913C101.953 45.7913 100.87 45.5561 99.9255 45.0912C98.981 44.6208 98.2353 43.9426 97.694 43.0456C97.1527 42.154 96.8821 41.0601 96.8821 39.7638C96.8821 38.2487 97.219 37.0509 97.9039 36.1703C98.5833 35.2897 99.4615 34.6169 100.533 34.1465C101.605 33.6761 102.737 33.3425 103.93 33.1346C105.123 32.9268 106.239 32.7572 107.266 32.6205C108.211 32.4838 108.973 32.3361 109.558 32.1884C110.144 32.0353 110.564 31.8165 110.829 31.5266C111.094 31.2367 111.227 30.8429 111.227 30.3506C111.227 29.7982 111.1 29.3169 110.851 28.9066C110.602 28.4964 110.227 28.1573 109.724 27.8948C109.222 27.6322 108.57 27.501 107.763 27.501C106.985 27.501 106.25 27.6377 105.554 27.9112C104.858 28.1847 104.267 28.6058 103.781 29.1692C103.295 29.7326 102.969 30.4436 102.803 31.2969L97.4676 29.8091C97.7714 28.6277 98.2409 27.6103 98.865 26.7571C99.4892 25.9038 100.246 25.1928 101.135 24.6294C102.024 24.066 103.024 23.6449 104.134 23.3714C105.245 23.0979 106.454 22.9612 107.763 22.9612C109.459 22.9612 110.901 23.169 112.099 23.5792C113.292 23.9895 114.259 24.6185 114.994 25.4608C115.728 26.2976 116.27 27.3205 116.618 28.5128C116.965 29.7107 117.137 31.0781 117.137 32.6205V36.3344C117.137 37.2697 117.153 38.2433 117.181 39.2442C117.209 40.2506 117.258 41.2461 117.325 42.2361C117.396 43.2261 117.474 44.2161 117.557 45.2061H112.265C112.182 44.4622 112.088 43.6418 111.994 42.7502C111.895 41.8532 111.834 40.9398 111.807 40.0045H111.1C110.707 41.0492 110.155 42.0227 109.431 42.9143C108.708 43.8113 107.819 44.5114 106.764 45.0201C105.709 45.5288 104.51 45.7913 103.179 45.7913ZM105.72 41.4594C106.25 41.4594 106.786 41.3719 107.327 41.1914C107.868 41.0109 108.399 40.7429 108.912 40.3873C109.426 40.0318 109.901 39.5778 110.332 39.0254C110.763 38.4784 111.105 37.8549 111.354 37.1657L111.271 33.9059L112.232 34.0699C111.757 34.4255 111.193 34.7099 110.542 34.9177C109.89 35.1256 109.205 35.2842 108.498 35.3936C107.791 35.503 107.089 35.6288 106.394 35.7655C105.698 35.9023 105.073 36.0828 104.516 36.3015C103.958 36.5203 103.516 36.8266 103.184 37.2095C102.847 37.5978 102.682 38.1175 102.682 38.7793C102.682 39.6052 102.963 40.2615 103.538 40.7374C104.101 41.2187 104.83 41.4594 105.72 41.4594Z" fill="black"/>
<path d="M129.984 52.6065C128.874 52.6065 127.747 52.508 126.61 52.3166C125.472 52.1252 124.395 51.8189 123.378 51.4087C122.362 50.9984 121.511 50.4569 120.815 49.8006L122.484 44.6427C123.373 45.5781 124.477 46.2672 125.798 46.7048C127.118 47.1424 128.416 47.3666 129.697 47.3666C131.062 47.3666 132.177 47.1369 133.055 46.6829C133.934 46.2289 134.613 45.6109 135.099 44.8232C135.585 44.0356 135.939 43.1277 136.165 42.0994C136.386 41.0656 136.513 39.9717 136.541 38.8176L136.751 35.4319H135.878C135.629 37.2752 135.188 38.7739 134.563 39.9334C133.939 41.0875 133.144 41.9353 132.188 42.4713C131.227 43.0073 130.095 43.2753 128.791 43.2753C127.372 43.2753 126.201 42.9964 125.267 42.4276C124.334 41.8642 123.621 41.1367 123.119 40.2397C122.616 39.3482 122.252 38.4019 122.014 37.4119C121.777 36.4219 121.638 35.4866 121.6 34.606C121.556 33.7254 121.539 33.0363 121.539 32.544V23.541H127.543V30.8484C127.543 31.4008 127.56 32.0134 127.587 32.6862C127.615 33.359 127.676 34.0262 127.775 34.6881C127.869 35.3499 128.051 35.9625 128.316 36.5259C128.581 37.0892 128.935 37.5377 129.377 37.8659C129.819 38.1941 130.393 38.3636 131.084 38.3636C132.001 38.3636 132.73 38.0902 133.271 37.5377C133.812 36.9853 134.238 36.2961 134.541 35.4757C134.845 34.6498 135.055 33.7965 135.165 32.9159C135.276 32.0353 135.348 31.2805 135.375 30.646V23.541H141.379V39.0638C141.379 39.835 141.335 40.6937 141.252 41.6454C141.17 42.5971 141.009 43.5816 140.772 44.599C140.534 45.6163 140.159 46.6009 139.645 47.5526C139.131 48.5043 138.457 49.363 137.623 50.1342C136.789 50.9054 135.745 51.5126 134.497 51.9501C133.232 52.3822 131.735 52.6065 129.984 52.6065Z" fill="black"/>
<path d="M64.8679 14.4454V8.20457V0.208008H66.8011V3.45148C66.8011 3.7359 66.7901 4.0422 66.768 4.35944C66.7459 4.67667 66.7183 5.00485 66.6852 5.3385C66.652 5.67214 66.6078 6.00579 66.5636 6.33943C66.5139 6.67308 66.4697 7.0122 66.4311 7.35131H66.7625C66.9558 6.51993 67.2099 5.83076 67.5247 5.2838C67.8396 4.73137 68.2428 4.32115 68.7289 4.04767C69.2149 3.77419 69.7894 3.64292 70.4467 3.64292C71.1592 3.64292 71.7447 3.76872 72.1976 4.03126C72.6505 4.28833 72.9985 4.62745 73.2471 5.04861C73.4956 5.46977 73.6779 5.91281 73.7939 6.38319C73.9099 6.85358 73.9817 7.30756 74.0093 7.73965C74.0369 8.17722 74.048 8.54368 74.048 8.83904V14.4454H72.1534V9.13987C72.1534 8.69136 72.1313 8.24286 72.0816 7.79435C72.0319 7.34584 71.938 6.93562 71.7944 6.55822C71.6508 6.18629 71.4243 5.87999 71.126 5.63933C70.8223 5.39866 70.4135 5.2838 69.8888 5.2838C69.2591 5.2838 68.7233 5.47524 68.2815 5.85264C67.8396 6.23551 67.4971 6.74419 67.243 7.3896C66.989 8.03501 66.8177 8.77888 66.7404 9.6212V14.4344H64.8679V14.4454Z" fill="black"/>
<path d="M81.2176 14.7078C80.2013 14.7078 79.3065 14.489 78.5276 14.0569C77.7544 13.6248 77.1468 12.9903 76.7049 12.1589C76.263 11.3276 76.0476 10.3157 76.0476 9.11785C76.0476 7.89266 76.2796 6.88078 76.738 6.07128C77.1965 5.26178 77.8096 4.65465 78.5829 4.24443C79.3507 3.83421 80.2178 3.63184 81.1789 3.63184C82.1511 3.63184 83.0293 3.84515 83.8026 4.27178C84.5759 4.69841 85.1945 5.32741 85.6474 6.14785C86.1003 6.96829 86.3268 7.98564 86.3268 9.19442C86.3268 10.4196 86.1059 11.437 85.6585 12.2519C85.2111 13.0669 84.6035 13.6795 83.8247 14.0897C83.0459 14.5054 82.1787 14.7078 81.2176 14.7078ZM81.2784 13.1763C81.6484 13.1763 82.0185 13.1107 82.3886 12.9849C82.7586 12.8591 83.1011 12.6403 83.4104 12.3449C83.7197 12.0441 83.9683 11.6448 84.1616 11.1416C84.3549 10.6384 84.4488 10.0149 84.4488 9.26553C84.4488 8.50525 84.3494 7.86531 84.1506 7.35117C83.9517 6.83155 83.6921 6.42133 83.3662 6.10957C83.0459 5.7978 82.6813 5.56808 82.2836 5.42587C81.8859 5.28366 81.4938 5.21255 81.1126 5.21255C80.7536 5.21255 80.3946 5.27819 80.019 5.40399C79.6489 5.53526 79.3065 5.7431 78.9916 6.03846C78.6768 6.32835 78.4227 6.72763 78.2294 7.2199C78.0361 7.71763 77.9422 8.34117 77.9422 9.08503C77.9422 9.84531 78.0361 10.4907 78.2294 11.0103C78.4227 11.5354 78.6768 11.9566 79.0027 12.2738C79.323 12.591 79.6876 12.8262 80.0853 12.9684C80.483 13.1052 80.8807 13.1763 81.2784 13.1763Z" fill="black"/>
<path d="M88.5029 14.4454V0.208008H90.3754V14.4454H88.5029Z" fill="black"/>
<path d="M96.8657 14.7079C95.9709 14.7079 95.2031 14.4727 94.5624 14.0078C93.9161 13.5374 93.4245 12.8866 93.0876 12.0606C92.7507 11.2293 92.585 10.2721 92.585 9.18363C92.585 8.09518 92.7451 7.138 93.071 6.30662C93.3914 5.47524 93.8719 4.82982 94.5127 4.35944C95.1534 3.88905 95.9211 3.65386 96.827 3.65386C97.5837 3.65386 98.2023 3.81248 98.6884 4.12424C99.1745 4.43601 99.5611 4.84623 99.8539 5.36038C100.141 5.86905 100.357 6.43242 100.495 7.03954H100.843C100.787 6.62932 100.727 6.20816 100.666 5.76513C100.605 5.32209 100.555 4.89546 100.522 4.47977C100.489 4.06408 100.473 3.69215 100.473 3.36944V0.208008H102.367L102.345 9.28208L102.367 14.4399H100.655L100.776 11.5246H100.445C100.296 12.1646 100.064 12.7225 99.7544 13.1983C99.4451 13.6742 99.0585 14.0461 98.589 14.3086C98.1305 14.5767 97.5506 14.7079 96.8657 14.7079ZM97.2965 13.078C97.8047 13.078 98.252 12.9631 98.6442 12.7334C99.0364 12.5037 99.3678 12.2029 99.644 11.8254C99.9202 11.4535 100.125 11.0433 100.263 10.6003C100.401 10.1572 100.467 9.74153 100.467 9.34772V9.10158C100.467 8.8281 100.428 8.52181 100.351 8.18269C100.274 7.84358 100.158 7.50446 99.992 7.16535C99.8262 6.82623 99.6219 6.51446 99.3733 6.23004C99.1248 5.94562 98.8376 5.71043 98.5006 5.5354C98.1637 5.36038 97.777 5.27286 97.3352 5.27286C96.7331 5.27286 96.2194 5.44789 95.7996 5.79247C95.3798 6.14253 95.0595 6.60745 94.8441 7.19816C94.6231 7.78888 94.5127 8.46711 94.5127 9.22739C94.5127 10.0041 94.6231 10.6768 94.8441 11.2566C95.065 11.8364 95.3798 12.2849 95.7996 12.6021C96.2249 12.9194 96.7221 13.078 97.2965 13.078Z" fill="black"/>
<path d="M106.029 2.1058C105.604 2.1058 105.283 2.01828 105.062 1.83779C104.841 1.66276 104.731 1.40569 104.731 1.0611C104.731 0.705579 104.841 0.443038 105.062 0.268011C105.283 0.0929833 105.604 0 106.029 0C106.465 0 106.797 0.0875137 107.018 0.268011C107.239 0.443038 107.349 0.711049 107.349 1.0611C107.349 1.40022 107.239 1.65729 107.018 1.83779C106.797 2.01828 106.465 2.1058 106.029 2.1058ZM105.101 14.4452V3.89983H106.973V14.4452H105.101Z" fill="black"/>
<path d="M109.713 14.4451V8.04024V3.89975H111.42L111.216 7.36748H111.547C111.74 6.4814 112.005 5.76488 112.342 5.21792C112.679 4.66549 113.099 4.26621 113.596 4.01461C114.099 3.76301 114.662 3.63721 115.292 3.63721C115.894 3.63721 116.408 3.74113 116.827 3.9435C117.247 4.14588 117.59 4.41936 117.86 4.75848C118.125 5.09759 118.335 5.48593 118.49 5.9235C118.639 6.3556 118.75 6.81505 118.81 7.2909C118.871 7.76676 118.904 8.23714 118.904 8.69659V14.4451H117.01V8.95913C117.01 8.65831 116.993 8.30825 116.96 7.89803C116.927 7.48781 116.838 7.08853 116.7 6.69472C116.562 6.3009 116.341 5.96726 116.043 5.69378C115.739 5.4203 115.319 5.28356 114.789 5.28356C114.132 5.28356 113.569 5.4914 113.11 5.90709C112.652 6.32278 112.293 6.86974 112.039 7.55891C111.784 8.24808 111.635 8.99742 111.597 9.81239V14.4397H109.713V14.4451Z" fill="black"/>
<path d="M125.444 17.9676C124.317 17.9676 123.395 17.8801 122.671 17.7105C121.953 17.541 121.423 17.2839 121.086 16.9338C120.749 16.5892 120.583 16.1626 120.583 15.6594C120.583 15.0359 120.827 14.5217 121.313 14.1225C121.799 13.7232 122.55 13.4552 123.566 13.3184V12.952C122.826 12.952 122.274 12.8644 121.909 12.6839C121.545 12.5089 121.362 12.2409 121.362 11.8909C121.362 11.5244 121.545 11.2126 121.909 10.961C122.274 10.7094 122.876 10.4742 123.71 10.2609V9.89445C122.87 9.8671 122.235 9.61003 121.793 9.12871C121.357 8.64738 121.136 8.02385 121.136 7.26357C121.136 6.55799 121.324 5.9454 121.699 5.43672C122.075 4.92805 122.622 4.53424 123.334 4.25529C124.047 3.97634 124.908 3.8396 125.908 3.8396H130.951V5.40938L127.637 4.92258V5.28904C128.443 5.45313 129.062 5.73208 129.482 6.12589C129.902 6.51971 130.112 7.03385 130.112 7.67379C130.112 8.25904 129.94 8.76771 129.598 9.20528C129.255 9.63738 128.747 9.9765 128.084 10.2117C127.416 10.4524 126.604 10.5672 125.643 10.5672C125.439 10.5672 125.229 10.5617 125.024 10.5453C124.82 10.5289 124.544 10.4961 124.201 10.4414C123.815 10.6602 123.516 10.8626 123.296 11.054C123.075 11.2454 122.964 11.415 122.964 11.5627C122.964 11.7104 123.064 11.8252 123.262 11.9073C123.461 11.9893 123.71 12.044 124.003 12.0714C124.295 12.0987 124.577 12.1096 124.837 12.1096H127.306C127.582 12.1096 127.93 12.137 128.344 12.1917C128.764 12.2464 129.184 12.3612 129.598 12.5308C130.018 12.7004 130.371 12.9738 130.658 13.3458C130.946 13.7232 131.089 14.2264 131.089 14.8663C131.089 15.5992 130.868 16.1954 130.432 16.6494C129.99 17.1034 129.355 17.437 128.515 17.6503C127.698 17.8637 126.67 17.9676 125.444 17.9676ZM125.488 16.4197C126.411 16.4197 127.156 16.365 127.731 16.2556C128.305 16.1462 128.725 15.9712 128.985 15.725C129.244 15.4789 129.377 15.1671 129.377 14.7843C129.377 14.4452 129.289 14.1772 129.112 13.9802C128.935 13.7833 128.709 13.6411 128.432 13.5646C128.156 13.4825 127.88 13.4388 127.609 13.4223C127.333 13.4059 127.096 13.4005 126.891 13.4005H124.483C123.688 13.5755 123.141 13.8162 122.848 14.1115C122.55 14.4123 122.406 14.7351 122.406 15.0906C122.406 15.4734 122.539 15.7579 122.809 15.9493C123.075 16.1407 123.445 16.2665 123.92 16.3267C124.384 16.3923 124.908 16.4197 125.488 16.4197ZM125.737 9.3639C126.588 9.3639 127.234 9.18887 127.67 8.83335C128.107 8.47782 128.327 8.00197 128.327 7.40578C128.327 6.76584 128.101 6.24076 127.648 5.82507C127.195 5.40938 126.538 5.20153 125.671 5.20153C124.82 5.20153 124.163 5.39844 123.693 5.79225C123.224 6.18606 122.992 6.69473 122.992 7.32374C122.992 7.73396 123.097 8.08948 123.312 8.39578C123.522 8.70208 123.831 8.93727 124.24 9.1123C124.649 9.28186 125.146 9.3639 125.737 9.3639Z" fill="black"/>
<path d="M136.916 14.7077C136.176 14.7077 135.519 14.6311 134.95 14.4725C134.381 14.3139 133.901 14.0896 133.508 13.7997C133.116 13.5098 132.818 13.1543 132.614 12.7386C132.409 12.3229 132.304 11.858 132.304 11.3439L133.889 10.9555C133.873 11.4314 133.994 11.8361 134.237 12.1698C134.486 12.5034 134.845 12.7605 135.32 12.9355C135.795 13.1106 136.358 13.1981 137.021 13.1981C137.844 13.1981 138.479 13.0613 138.927 12.7879C139.374 12.5144 139.595 12.1424 139.595 11.6666C139.595 11.2837 139.474 10.9884 139.225 10.7805C138.977 10.5672 138.634 10.4031 138.198 10.2828C137.756 10.1624 137.248 10.0366 136.673 9.91631C136.165 9.80692 135.662 9.68659 135.171 9.54985C134.679 9.41311 134.226 9.23261 133.823 9.00836C133.42 8.7841 133.094 8.48875 132.846 8.13322C132.597 7.77223 132.475 7.31278 132.475 6.75488C132.475 6.11494 132.647 5.56798 132.989 5.10306C133.332 4.64361 133.818 4.28262 134.453 4.02555C135.083 3.76848 135.839 3.63721 136.717 3.63721C137.585 3.63721 138.325 3.76848 138.954 4.03649C139.579 4.3045 140.07 4.67643 140.429 5.15776C140.788 5.63908 140.987 6.21339 141.026 6.88068L139.396 7.26902C139.38 6.80958 139.264 6.41577 139.037 6.09853C138.811 5.78129 138.491 5.54063 138.082 5.38201C137.668 5.22339 137.187 5.14682 136.64 5.14682C135.911 5.14682 135.337 5.28356 134.922 5.55704C134.503 5.83052 134.293 6.20245 134.293 6.67831C134.293 7.04477 134.42 7.34013 134.674 7.55344C134.928 7.77223 135.27 7.93632 135.701 8.05118C136.132 8.16604 136.624 8.28637 137.176 8.4067C137.712 8.51609 138.231 8.63643 138.728 8.77317C139.231 8.90991 139.678 9.08493 140.076 9.30372C140.473 9.5225 140.788 9.80692 141.026 10.1679C141.258 10.5289 141.374 10.9938 141.374 11.5627C141.374 12.2409 141.186 12.8152 140.816 13.2856C140.446 13.756 139.932 14.106 139.269 14.3467C138.601 14.5874 137.822 14.7077 136.916 14.7077Z" fill="black"/>
</svg>
